<?xml version="1.0" encoding="UTF-8" standalone="no"?>
<!-- Generator: Gravit.io -->
<svg xmlns="http://www.w3.org/2000/svg" xmlns:xlink="http://www.w3.org/1999/xlink" style="isolation:isolate" viewBox="0 0 32 32" width="32" height="32"><defs><clipPath id="_clipPath_2VoLGFbG6X8f0S1yv4s78HWxi9cEKTor"><rect width="32" height="32"/></clipPath></defs><g clip-path="url(#_clipPath_2VoLGFbG6X8f0S1yv4s78HWxi9cEKTor)"><path d=" M 22.333 32 L 32 32 L 32 16 L 32 0 L 16 0 L 0 0 L 0 16 L 0 32 L 16 32 L 17.167 32 L 17.133 26.667 L 17.083 21.317 L 15.333 21.283 C 14.367 21.267 13.483 21.183 13.383 21.117 C 13.217 21.017 13.167 20.317 13.167 18.617 C 13.167 15.733 13.1 15.8 15.433 15.85 C 16.3 15.867 17.033 15.85 17.067 15.817 C 17.117 15.783 17.15 14.667 17.183 13.333 C 17.217 11.367 17.283 10.8 17.533 10.333 C 17.7 10.017 17.833 9.667 17.833 9.55 C 17.833 9.267 19.767 7.333 20.067 7.333 C 20.183 7.333 20.467 7.2 20.683 7.033 C 21.033 6.75 21.45 6.717 24.033 6.683 C 26.733 6.65 26.983 6.667 27.117 6.95 C 27.233 7.2 27.267 8.917 27.183 10.883 L 27.167 11.333 L 25.517 11.333 C 22.667 11.333 22.267 11.733 22.367 14.483 L 22.417 15.883 L 24.05 15.85 C 24.933 15.833 25.767 15.867 25.883 15.95 C 25.983 16.017 26.167 16.083 26.25 16.1 C 26.35 16.1 26.517 16.133 26.633 16.133 C 26.783 16.167 26.833 16.783 26.833 18.65 L 26.833 21.133 L 26.233 21.233 C 25.917 21.3 24.917 21.333 24.033 21.317 L 22.417 21.283 L 22.367 26.65 L 22.333 32 Z " fill-rule="evenodd" fill="rgb(0,0,0)"/></g></svg>