<?xml version="1.0" encoding="UTF-8" standalone="no"?>
<!-- Generator: Gravit.io -->
<svg xmlns="http://www.w3.org/2000/svg" xmlns:xlink="http://www.w3.org/1999/xlink" style="isolation:isolate" viewBox="0 0 32 32" width="32" height="32"><defs><clipPath id="_clipPath_PkSZyraMncDy5bJ8xwMkDbd5A7Gzlm8u"><rect width="32" height="32"/></clipPath></defs><g clip-path="url(#_clipPath_PkSZyraMncDy5bJ8xwMkDbd5A7Gzlm8u)"><path d=" M 10.316 31.738 C 8.911 31.194 7.355 30.298 6.131 29.325 C 5.4 28.742 4.157 27.488 3.551 26.72 C 1.958 24.704 0.821 22.266 0.328 19.808 C -0.109 17.632 -0.109 15.008 0.328 12.934 C 1.215 8.73 3.701 5.024 7.224 2.65 C 9.279 1.267 11.565 0.41 14.002 0.096 C 15.013 -0.032 16.987 -0.032 17.999 0.096 C 22.672 0.691 26.844 3.373 29.449 7.456 C 30.486 9.088 31.261 10.995 31.673 12.934 C 32.11 15.008 32.11 17.638 31.667 19.808 C 31.192 22.176 30.136 24.506 28.631 26.496 C 28.062 27.245 26.838 28.518 26.088 29.139 C 24.802 30.208 23.084 31.213 21.591 31.776 C 20.898 32.038 20.554 32.051 20.254 31.827 C 19.936 31.584 19.936 31.578 19.936 28.691 C 19.936 25.683 19.911 25.408 19.536 24.602 C 19.417 24.352 19.224 24.026 19.099 23.885 C 18.974 23.75 18.874 23.616 18.874 23.603 C 18.874 23.584 19.055 23.552 19.286 23.526 C 20.379 23.411 21.722 23.021 22.622 22.56 C 24.858 21.408 25.982 19.36 26.157 16.128 C 26.245 14.406 25.839 12.902 24.945 11.699 C 24.777 11.469 24.621 11.251 24.596 11.206 C 24.571 11.168 24.614 10.886 24.689 10.573 C 24.889 9.773 24.883 8.653 24.664 7.795 C 24.577 7.45 24.464 7.091 24.421 6.995 C 24.339 6.822 24.321 6.816 23.858 6.829 C 23.065 6.848 21.722 7.392 20.498 8.198 L 20.017 8.512 L 19.367 8.352 C 17.287 7.846 14.732 7.846 12.634 8.358 L 11.984 8.512 L 11.509 8.198 C 10.36 7.45 9.004 6.88 8.18 6.81 C 7.643 6.758 7.643 6.765 7.455 7.36 C 7.124 8.422 7.074 9.613 7.312 10.573 C 7.386 10.886 7.43 11.168 7.405 11.206 C 7.38 11.251 7.224 11.469 7.055 11.699 C 6.162 12.902 5.756 14.406 5.844 16.128 C 6.031 19.571 7.318 21.709 9.86 22.797 C 10.522 23.078 11.565 23.366 12.346 23.488 C 13.221 23.616 13.171 23.584 12.927 23.859 C 12.815 23.987 12.659 24.198 12.584 24.32 C 12.421 24.589 12.128 25.466 12.128 25.683 C 12.128 25.818 12.071 25.862 11.772 25.978 C 11.216 26.182 10.828 26.253 10.254 26.259 C 9.048 26.266 8.23 25.773 7.443 24.576 C 6.699 23.45 5.862 22.848 5.007 22.822 C 4.057 22.803 4.032 23.136 4.944 23.776 C 5.6 24.23 6 24.762 6.518 25.843 C 6.874 26.586 7.024 26.822 7.318 27.123 C 7.749 27.571 8.373 27.923 9.048 28.102 C 9.641 28.262 10.841 28.282 11.584 28.141 L 12.065 28.051 L 12.065 29.722 C 12.065 31.283 12.059 31.405 11.94 31.603 C 11.796 31.84 11.484 32 11.178 32 C 11.066 31.994 10.678 31.878 10.316 31.738 Z " fill="rgb(0,0,0)"/></g></svg>