<?xml version="1.0" encoding="UTF-8" standalone="no"?>
<!-- Generator: Gravit.io -->
<svg xmlns="http://www.w3.org/2000/svg" xmlns:xlink="http://www.w3.org/1999/xlink" style="isolation:isolate" viewBox="0 0 32 32" width="32" height="32"><defs><clipPath id="_clipPath_RrYFUyJEuisTsVRFjyoHDzaYImB9Pt3E"><rect width="32" height="32"/></clipPath></defs><g clip-path="url(#_clipPath_RrYFUyJEuisTsVRFjyoHDzaYImB9Pt3E)"><path d=" M 7.354 32.295 C 4.884 31.691 2.339 29.553 1.18 27.088 L 0.5 25.654 L 0.5 16.473 L 0.5 7.292 L 1.18 5.858 C 2.037 3.996 4.002 2.034 5.867 1.179 L 7.303 0.5 L 16.5 0.5 L 25.697 0.5 L 27.133 1.179 C 28.998 2.034 30.812 3.871 31.769 5.782 L 32.5 7.292 L 32.5 16.473 L 32.5 25.654 L 31.769 27.163 C 30.812 29.075 29.124 30.76 27.209 31.716 L 25.697 32.446 L 17.004 32.496 C 12.217 32.521 7.883 32.421 7.354 32.295 Z  M 25.294 28.874 C 26.806 28.321 28.166 27.038 28.821 25.503 C 29.35 24.271 29.376 23.893 29.376 16.473 C 29.376 9.103 29.35 8.65 28.846 7.493 C 28.141 5.908 27.057 4.801 25.495 4.147 C 24.286 3.619 23.857 3.594 16.5 3.594 C 9.143 3.594 8.714 3.619 7.505 4.147 C 5.943 4.801 4.859 5.908 4.154 7.518 C 3.624 8.675 3.599 9.103 3.599 16.473 C 3.599 23.843 3.624 24.271 4.154 25.428 C 4.809 26.912 5.691 27.893 7.051 28.622 C 7.908 29.1 8.588 29.201 11.839 29.302 C 18.138 29.503 24.034 29.327 25.294 28.874 Z " fill="rgb(0,0,0)"/><path d=" M 13.224 24.22 C 7.883 22.158 6.421 14.687 10.554 10.537 C 13.804 7.317 19.196 7.317 22.446 10.537 C 26.629 14.712 25.117 22.208 19.7 24.22 C 17.76 24.95 15.139 24.95 13.224 24.22 Z  M 18.717 21.026 C 20.531 20.095 21.539 18.46 21.539 16.473 C 21.539 13.63 19.347 11.442 16.5 11.442 C 11.108 11.442 9.52 18.536 14.358 21.076 C 15.417 21.655 17.558 21.604 18.717 21.026 Z " fill="rgb(0,0,0)"/><path d=" M 23.328 9.279 C 22.245 7.92 23.076 6.16 24.79 6.16 C 26.554 6.16 27.486 8.122 26.327 9.379 C 25.546 10.21 24.009 10.134 23.328 9.279 Z " fill="rgb(0,0,0)"/></g></svg>