<?xml version="1.0" encoding="UTF-8" standalone="no"?>
<!-- Generator: Gravit.io -->
<svg xmlns="http://www.w3.org/2000/svg" xmlns:xlink="http://www.w3.org/1999/xlink" style="isolation:isolate" viewBox="0 0 32 32" width="32" height="32"><defs><clipPath id="_clipPath_v5StkHOvfQQyeXLpZCq1w841Eq7w2qUX"><rect width="32" height="32"/></clipPath></defs><g clip-path="url(#_clipPath_v5StkHOvfQQyeXLpZCq1w841Eq7w2qUX)"><clipPath id="_clipPath_hd9w48DPgk237J1zw0xnqznnYQWK5fbh"><rect x="0" y="2.996" width="32" height="26.008" transform="matrix(1,0,0,1,0,0)" fill="rgb(255,255,255)"/></clipPath><g clip-path="url(#_clipPath_hd9w48DPgk237J1zw0xnqznnYQWK5fbh)"><g><path d=" M 10.064 29.003 C 22.14 29.003 28.744 18.998 28.744 10.323 C 28.744 10.039 28.738 9.756 28.725 9.474 C 30.007 8.547 31.121 7.391 32 6.074 C 30.824 6.597 29.558 6.949 28.23 7.108 C 29.585 6.295 30.626 5.009 31.117 3.477 C 29.848 4.229 28.443 4.775 26.948 5.07 C 25.75 3.794 24.044 2.996 22.155 2.996 C 18.53 2.996 15.59 5.936 15.59 9.56 C 15.59 10.076 15.647 10.577 15.76 11.058 C 10.303 10.783 5.465 8.17 2.227 4.198 C 1.663 5.168 1.338 6.295 1.338 7.498 C 1.338 9.776 2.497 11.786 4.26 12.963 C 3.182 12.93 2.171 12.634 1.286 12.142 C 1.285 12.169 1.285 12.196 1.285 12.226 C 1.285 15.405 3.548 18.06 6.552 18.661 C 6.001 18.812 5.42 18.892 4.821 18.892 C 4.399 18.892 3.987 18.851 3.587 18.774 C 4.423 21.383 6.847 23.281 9.72 23.334 C 7.473 25.095 4.643 26.144 1.566 26.144 C 1.037 26.144 0.514 26.114 0 26.053 C 2.906 27.916 6.356 29.003 10.064 29.003" fill="rgb(0,0,0)"/></g></g></g></svg>