<?xml version="1.0" standalone="no"?><!-- Generator: Gravit.io --><svg xmlns="http://www.w3.org/2000/svg" xmlns:xlink="http://www.w3.org/1999/xlink" style="isolation:isolate" viewBox="0 0 32 32" width="32" height="32"><defs><clipPath id="_clipPath_vnLtbQeyZ5ieh9ncZTWahVoqMpj61RC2"><rect width="32" height="32"/></clipPath></defs><g clip-path="url(#_clipPath_vnLtbQeyZ5ieh9ncZTWahVoqMpj61RC2)"><g><g><path d=" M 0 16 L 0 0 L 16 0 L 32 0 L 32 16 L 32 32 L 16 32 L 0 32 L 0 16 Z  M 17.511 26.524 C 19.639 26.145 21.493 24.978 22.607 23.319 C 22.921 22.844 23.467 21.796 23.467 21.653 C 23.467 21.612 23.52 21.464 23.579 21.316 C 23.662 21.126 23.763 21.013 23.959 20.901 C 24.338 20.676 24.759 20.184 24.984 19.704 C 25.084 19.479 25.339 18.702 25.541 17.985 C 25.879 16.782 25.908 16.634 25.908 16.089 C 25.914 15.348 25.796 14.921 25.446 14.394 C 24.865 13.511 24.119 13.102 23.099 13.096 L 22.708 13.096 L 22.53 12.788 C 22.222 12.237 21.363 11.556 20.984 11.556 C 20.919 11.556 20.853 11.532 20.83 11.502 C 20.812 11.473 20.895 11.105 21.013 10.684 C 21.316 9.6 21.351 9.393 21.316 8.83 C 21.274 8.19 21.096 7.686 20.729 7.135 C 20.284 6.465 19.757 6.068 18.963 5.796 C 18.447 5.618 17.44 5.606 16.948 5.772 C 15.822 6.151 15.022 6.951 14.637 8.083 L 14.542 8.373 L 14.436 8.024 C 14.376 7.834 14.181 7.455 14.003 7.182 C 13.541 6.483 12.972 6.05 12.148 5.772 C 11.698 5.618 10.649 5.618 10.193 5.772 C 9.067 6.145 8.284 6.927 7.905 8.059 C 7.757 8.504 7.751 9.547 7.899 10.044 C 8.124 10.827 8.314 11.484 8.385 11.763 C 8.45 12.024 8.687 12.853 8.978 13.867 C 9.031 14.044 9.084 14.234 9.102 14.287 C 9.114 14.341 9.043 14.483 8.942 14.613 C 8.664 14.957 8.444 15.443 8.332 15.935 C 8.255 16.279 8.237 16.705 8.237 18.021 C 8.237 20.184 8.356 20.99 8.824 22.104 C 10.039 24.972 12.99 26.756 16.326 26.631 C 16.717 26.619 17.25 26.572 17.511 26.524 Z " fill="rgb(0,0,0)"/><path d=" M 15.206 24.409 C 12.824 24.136 10.862 22.311 10.495 20.03 C 10.412 19.538 10.412 16.575 10.489 16.29 C 10.572 15.994 10.916 15.668 11.23 15.591 C 11.401 15.55 12.409 15.526 14.151 15.526 C 16.35 15.526 16.859 15.544 17.108 15.615 C 18.08 15.905 18.181 17.333 17.262 17.784 C 16.984 17.92 16.93 17.926 15.236 17.944 C 13.298 17.967 13.256 17.973 13.179 18.359 C 13.138 18.584 13.244 18.88 13.399 18.963 C 13.458 18.999 13.636 19.022 13.796 19.022 C 14.187 19.022 14.679 19.176 14.945 19.384 C 15.295 19.668 15.431 20.012 15.473 20.753 C 15.502 21.31 15.52 21.41 15.639 21.535 C 15.917 21.825 16.326 21.784 16.533 21.44 C 16.747 21.09 16.646 19.953 16.35 19.366 C 16.184 19.046 16.201 19.016 16.516 19.034 C 16.776 19.052 16.8 19.064 16.942 19.33 C 17.404 20.166 18.37 20.658 19.247 20.504 C 19.698 20.427 20.124 20.225 20.439 19.941 C 20.705 19.698 20.747 19.692 20.895 19.858 C 20.954 19.929 21.132 20.047 21.286 20.124 C 21.553 20.261 21.564 20.279 21.535 20.462 C 21.511 20.563 21.404 20.877 21.298 21.156 C 20.391 23.431 17.956 24.729 15.206 24.409 Z " fill="rgb(0,0,0)"/><path d=" M 18.459 19.307 C 18.264 19.2 17.956 18.886 17.956 18.797 C 17.956 18.75 18.098 18.572 18.27 18.4 C 18.453 18.216 18.673 17.914 18.791 17.677 C 18.981 17.292 18.993 17.244 18.993 16.652 C 18.993 16.065 18.981 16.012 18.803 15.68 L 18.613 15.336 L 18.75 14.85 C 19.034 13.879 19.23 13.594 19.739 13.446 C 20.207 13.304 20.853 13.612 21.013 14.05 C 21.156 14.441 21.12 14.744 20.782 15.881 C 20.705 16.16 20.622 16.439 20.604 16.504 C 20.361 17.399 20 18.572 19.899 18.779 C 19.721 19.147 19.342 19.378 18.91 19.378 C 18.726 19.378 18.524 19.342 18.459 19.307 Z " fill="rgb(0,0,0)"/><path d=" M 21.861 19.123 C 21.304 18.827 21.227 18.37 21.535 17.304 C 21.985 15.781 21.985 15.781 22.193 15.567 C 22.833 14.91 23.881 15.33 23.881 16.243 C 23.881 16.397 23.799 16.794 23.704 17.132 C 23.259 18.649 23.23 18.726 22.999 18.957 C 22.667 19.289 22.281 19.342 21.861 19.123 Z " fill="rgb(0,0,0)"/><path d=" M 17.304 14.483 C 17.102 14.43 16.332 14.406 14.222 14.406 L 11.401 14.4 L 11.236 13.825 C 11.147 13.505 11.034 13.114 10.993 12.948 C 10.91 12.622 10.193 10.104 10.044 9.624 C 9.831 8.907 10.021 8.314 10.566 8 C 11.093 7.698 11.567 7.769 12.047 8.225 C 12.308 8.48 12.273 8.379 13.25 11.763 C 13.428 12.385 13.618 13.001 13.671 13.138 C 13.855 13.63 14.317 13.879 14.791 13.748 C 15.123 13.653 15.354 13.387 15.49 12.93 C 15.544 12.747 15.644 12.421 15.71 12.207 C 15.769 11.994 15.97 11.319 16.148 10.696 C 16.332 10.08 16.516 9.452 16.557 9.304 C 16.604 9.156 16.67 8.924 16.711 8.782 C 16.788 8.48 17.114 8.095 17.428 7.935 C 17.92 7.686 18.631 7.887 18.945 8.367 C 19.087 8.575 19.111 8.676 19.111 9.031 C 19.111 9.298 19.064 9.606 18.981 9.867 C 18.91 10.098 18.767 10.578 18.673 10.933 C 18.572 11.295 18.447 11.721 18.4 11.881 C 18.347 12.047 18.199 12.563 18.068 13.037 C 17.701 14.359 17.636 14.578 17.6 14.572 C 17.582 14.566 17.452 14.53 17.304 14.483 Z " fill="rgb(0,0,0)"/></g></g></g></svg>