<?xml version="1.0" encoding="UTF-8" standalone="no"?>
<!-- Generator: Gravit.io -->
<svg xmlns="http://www.w3.org/2000/svg" xmlns:xlink="http://www.w3.org/1999/xlink" style="isolation:isolate" viewBox="0 0 32 32" width="32" height="32"><defs><clipPath id="_clipPath_6oOJEQBbPo1wjHDFH9rzH5hAEwQ2ESWl"><rect width="32" height="32"/></clipPath></defs><g clip-path="url(#_clipPath_6oOJEQBbPo1wjHDFH9rzH5hAEwQ2ESWl)"><path d=" M 15.99 4.803 C 15.99 4.803 5.989 4.803 3.479 5.455 C 2.135 5.831 1.028 6.937 0.652 8.301 C 0 10.811 0 16.01 0 16.01 C 0 16.01 0 21.228 0.652 23.699 C 1.028 25.063 2.115 26.149 3.479 26.525 C 6.009 27.197 15.99 27.197 15.99 27.197 C 15.99 27.197 26.011 27.197 28.521 26.545 C 29.885 26.169 30.972 25.102 31.328 23.718 C 32 21.228 32 16.03 32 16.03 C 32 16.03 32.02 10.811 31.328 8.301 C 30.972 6.937 29.885 5.851 28.521 5.495 C 26.011 4.803 15.99 4.803 15.99 4.803 L 15.99 4.803 Z  M 12.808 11.207 L 21.129 16.01 L 12.808 20.793 L 12.808 11.207 L 12.808 11.207 Z " fill="rgb(0,0,0)"/></g></svg>