<?xml version="1.0" standalone="no"?><!-- Generator: Gravit.io --><svg xmlns="http://www.w3.org/2000/svg" xmlns:xlink="http://www.w3.org/1999/xlink" style="isolation:isolate" viewBox="0 0 128 116.3" width="128" height="116.3"><defs><clipPath id="_clipPath_IC0Tb87Sg9CjqWm4hihULurLKpjwfP9Q"><rect width="128" height="116.3"/></clipPath></defs><g clip-path="url(#_clipPath_IC0Tb87Sg9CjqWm4hihULurLKpjwfP9Q)"><path d=" M 92.259 115.853 C 96.669 114.801 100.135 112.732 103.982 108.885 C 107.358 105.491 109.499 102.388 112.076 97.162 C 113.782 93.677 113.8 93.641 114.744 91.264 C 115.542 89.213 116.177 87.399 116.413 86.455 C 116.486 86.11 116.776 85.094 117.03 84.187 C 118.246 79.922 118.791 75.766 118.754 71.121 C 118.718 69.233 118.718 67.582 118.736 67.473 C 118.736 67.364 119.099 67.183 119.535 67.056 C 119.952 66.929 120.877 66.548 121.603 66.185 C 125.396 64.315 127.755 60.831 127.973 56.748 C 128.046 55.26 127.991 54.952 127.574 53.826 C 126.086 49.943 121.712 48.763 118.21 51.34 C 117.72 51.703 117.302 52.102 117.302 52.23 C 117.302 52.338 117.611 52.592 117.974 52.792 C 119.426 53.572 120.387 54.806 120.387 55.895 C 120.387 56.585 119.317 57.601 118.591 57.601 C 117.23 57.601 115.724 56.385 113.836 53.772 C 111.967 51.159 110.534 50.016 108.247 49.326 C 106.505 48.8 104.237 49.145 101.859 50.324 C 99.028 51.703 96.796 54.026 96.506 55.895 C 96.216 57.819 96.687 58.835 99.264 61.775 C 101.569 64.424 103.329 69.088 103.892 74.024 C 104.164 76.274 104.001 81.573 103.601 83.878 C 103.275 85.82 102.422 89.195 101.914 90.538 C 100.734 93.623 99.918 95.311 98.647 97.252 C 96.488 100.591 93.421 103.477 90.499 104.947 C 88.757 105.836 87.632 106.126 85.908 106.126 C 84.565 106.126 84.22 106.036 83.186 105.564 C 82.025 105.001 80.282 103.658 80.282 103.295 C 80.282 103.187 80.845 102.533 81.516 101.807 C 85.345 97.797 88.086 93.296 90.027 87.816 C 91.116 84.767 91.461 83.334 91.751 80.557 C 91.987 78.234 91.77 75.186 91.243 73.389 C 90.173 69.76 87.922 67.328 84.547 66.148 C 82.351 65.386 78.849 65.187 76.653 65.677 C 72.044 66.729 68.033 70.141 65.946 74.75 C 65.057 76.71 64.912 77.091 64.64 78.289 C 64.476 78.942 64.24 79.886 64.132 80.376 C 63.805 81.682 63.678 87.507 63.932 89.467 C 64.621 94.676 65.71 98.069 68.033 102.188 C 68.487 103.005 68.85 103.822 68.85 104.021 C 68.85 104.475 67.017 105.836 65.511 106.507 C 63.515 107.397 61.137 107.034 58.397 105.419 C 56.219 104.148 54.441 101.517 53.57 98.287 C 53.243 97.071 53.189 96.345 53.171 92.625 C 53.153 87.907 53.461 84.931 54.459 80.557 C 55.203 77.218 57.072 71.139 58.125 68.526 C 60.629 62.374 61.518 60.269 61.881 59.47 C 62.117 58.962 62.317 58.472 62.317 58.418 C 62.317 58.363 62.516 57.855 62.77 57.311 C 63.025 56.766 63.442 55.823 63.696 55.188 C 63.95 54.571 64.367 53.663 64.585 53.155 C 64.821 52.665 65.293 51.594 65.638 50.796 C 67.525 46.404 67.834 45.678 69.539 41.904 L 70.937 38.819 L 77.742 38.692 C 86.416 38.528 89.556 38.129 93.965 36.641 C 99.264 34.845 103.728 31.542 106.977 27.023 C 108.338 25.136 110.025 22.015 110.679 20.218 C 112.693 14.665 113.492 10.11 113.492 4.031 C 113.492 1.871 113.419 0.057 113.346 0.002 C 113.256 -0.052 112.239 0.891 111.06 2.089 C 104.89 8.35 98.121 11.653 85.908 14.375 C 83.585 14.901 80.065 15.518 77.923 15.79 C 77.579 15.845 76.472 15.99 75.473 16.135 C 74.475 16.262 72.552 16.516 71.209 16.661 C 56.945 18.294 55.475 18.494 51.066 19.329 C 41.684 21.107 34.189 24.229 25.678 29.872 C 19.272 34.137 12.83 40.216 8.747 45.896 C 5.789 49.997 3.411 54.589 2.087 58.69 C -0.218 65.931 -0.654 73.843 0.98 79.123 C 2.341 83.533 5.462 86.963 9.364 88.288 C 10.906 88.796 11.523 88.741 12.358 88.016 C 13.066 87.38 15.878 85.021 18.238 83.098 C 23.319 78.924 25.841 76.746 25.841 76.547 C 25.841 76.42 25.533 76.256 25.17 76.184 C 23.083 75.803 20.869 75.095 19.562 74.369 C 16.005 72.409 13.628 69.651 12.394 66.021 C 11.668 63.862 11.451 62.12 11.559 59.416 C 11.813 54.062 14.009 49.108 17.911 45.134 C 21.141 41.849 24.698 39.871 29.471 38.728 C 29.815 38.637 30.432 38.492 30.832 38.383 C 31.993 38.075 35.332 37.657 38.09 37.458 C 40.885 37.258 46.874 37.222 47.327 37.385 C 47.708 37.53 47.69 37.875 47.273 39.291 C 47.073 39.926 46.583 41.686 46.184 43.174 C 45.767 44.68 45.24 46.549 45.004 47.348 C 44.605 48.745 44.297 49.87 43.68 52.248 C 43.535 52.847 43.335 53.536 43.244 53.79 C 43.172 54.044 42.936 54.897 42.736 55.696 C 41.792 59.488 41.593 60.323 41.339 61.412 C 41.175 62.065 40.94 63.045 40.813 63.59 C 40.359 65.386 40.177 66.203 39.814 67.945 C 38.889 72.282 38.326 75.004 38.181 75.93 C 38.09 76.474 37.891 77.708 37.728 78.652 C 36.766 84.35 36.457 91.699 36.983 96.073 C 37.147 97.416 37.365 98.849 37.473 99.249 C 37.927 101.045 38.272 102.098 38.962 103.767 C 41.302 109.502 46.13 113.403 53.062 115.2 C 60.393 117.087 65.402 115.926 71.771 110.826 C 72.425 110.3 73.132 109.865 73.314 109.865 C 73.514 109.865 74.312 110.518 75.11 111.335 C 77.506 113.766 79.647 114.964 82.986 115.799 C 85.672 116.452 89.701 116.47 92.259 115.853 Z  M 75.238 93.315 C 74.82 92.008 74.729 91.572 74.385 89.086 C 73.895 85.493 74.131 82.208 74.965 80.666 C 75.873 78.996 77.089 78.289 78.613 78.525 C 79.466 78.67 80.518 79.795 80.791 80.884 C 81.117 82.118 80.464 84.604 78.921 88.179 C 77.47 91.536 76.09 94.294 75.8 94.385 C 75.691 94.421 75.437 93.95 75.238 93.315 Z " fill-rule="evenodd" fill="rgb(255,95,162)"/></g></svg>